<?xml version="1.0" standalone="no"?>
<!DOCTYPE svg PUBLIC "-//W3C//DTD SVG 20010904//EN"
 "http://www.w3.org/TR/2001/REC-SVG-20010904/DTD/svg10.dtd">
<svg version="1.0" xmlns="http://www.w3.org/2000/svg"
 width="360.000000pt" height="438.000000pt" viewBox="0 0 360.000000 438.000000"
 preserveAspectRatio="xMidYMid meet">

<g transform="translate(0.000000,438.000000) scale(0.100000,-0.100000)"
fill="#000000" stroke="none">
<path d="M1895 4316 c-11 -7 -36 -17 -55 -21 -19 -4 -50 -16 -68 -26 -18 -10
-44 -19 -58 -19 -25 0 -74 -40 -74 -59 0 -6 -18 -20 -40 -31 -49 -25 -71 -57
-81 -121 -9 -59 3 -148 22 -160 38 -25 119 26 119 74 0 20 4 22 40 19 28 -3
47 1 59 12 14 12 24 14 53 6 69 -20 110 -70 84 -105 -10 -14 -18 -15 -53 -6
-77 21 -153 -19 -139 -73 9 -35 75 -53 222 -60 97 -5 124 -3 141 9 20 14 23
12 56 -33 18 -26 67 -96 107 -157 71 -107 172 -237 204 -264 22 -18 20 -26 -6
-38 -13 -6 -47 -29 -77 -53 l-53 -42 -114 -4 -115 -3 -37 41 c-59 66 -94 96
-137 119 -26 14 -47 35 -59 60 l-19 38 -27 -19 -28 -20 -12 30 c-17 42 -104
117 -148 130 -50 13 -69 13 -131 -6 -145 -43 -214 -204 -141 -331 16 -28 44
-61 62 -74 18 -12 35 -24 37 -26 3 -2 -8 -16 -24 -33 l-28 -29 37 -37 c43 -43
39 -50 -34 -77 -26 -10 -65 -37 -89 -61 -40 -41 -45 -43 -73 -34 -16 6 -64 9
-106 6 l-77 -4 -48 96 c-65 130 -151 247 -312 424 -74 82 -135 157 -135 165 1
9 7 27 15 41 8 14 14 35 15 48 0 16 6 22 21 22 31 0 89 65 89 99 0 15 -5 32
-11 38 -7 7 -8 22 0 47 8 32 7 40 -9 54 -56 52 -73 61 -128 67 -35 5 -65 15
-79 27 -19 18 -27 19 -69 10 -45 -10 -50 -9 -71 14 -21 23 -24 24 -51 10 -16
-8 -52 -35 -80 -61 -56 -51 -74 -93 -71 -168 0 -23 -4 -73 -10 -112 -6 -38
-11 -171 -11 -295 0 -304 22 -453 101 -677 51 -145 95 -220 179 -303 89 -90
175 -138 311 -175 92 -25 99 -25 319 -19 230 7 300 2 440 -32 81 -20 89 -28
50 -44 -41 -17 -109 -87 -131 -135 -30 -65 -25 -91 35 -169 29 -39 64 -90 77
-113 l24 -42 92 90 c51 49 97 89 103 89 5 0 10 -13 10 -29 0 -16 11 -68 25
-115 l25 -87 -70 -92 c-104 -136 -228 -391 -260 -533 -17 -73 -14 -189 7 -253
25 -79 107 -163 183 -186 103 -31 303 -30 386 2 15 5 15 3 0 -25 -58 -113 -59
-318 -1 -372 21 -20 27 -21 41 -9 10 8 19 13 21 12 17 -13 34 19 101 187 45
112 83 175 107 175 24 0 150 170 167 226 15 53 -6 101 -57 125 -42 20 -52 32
-31 40 36 14 12 24 -56 24 l-73 1 40 34 c64 56 181 109 239 110 l49 0 12 -50
c21 -89 97 -205 145 -220 16 -5 18 -13 13 -59 -3 -30 0 -69 6 -89 14 -41 63
-87 92 -87 17 0 19 8 19 73 1 87 13 73 29 -33 18 -118 29 -146 66 -179 20 -17
40 -31 46 -31 6 0 22 -9 36 -20 31 -24 58 -25 130 -4 46 13 57 21 69 49 7 19
18 36 23 40 30 18 20 185 -19 314 l-19 63 64 60 c102 95 138 197 116 331 -25
157 -74 254 -239 480 -49 67 -108 158 -131 203 -26 51 -84 131 -156 218 -63
75 -122 150 -130 166 -33 64 -8 243 57 406 23 57 29 62 144 141 65 46 150 109
189 140 38 32 101 79 140 104 161 104 206 250 128 410 -59 118 -185 225 -428
362 -124 70 -227 110 -470 182 -217 65 -217 65 -269 114 -34 32 -37 33 -31 12
6 -18 4 -22 -6 -16 -35 20 -109 82 -156 131 -54 57 -81 66 -118 40z m-136
-128 c-1 -7 -1 -28 0 -46 1 -29 3 -31 20 -23 10 6 20 9 22 6 2 -2 5 8 5 21 1
13 -2 22 -6 19 -5 -3 -11 -2 -14 3 -2 4 4 8 14 9 13 1 21 -9 29 -41 6 -24 17
-49 26 -56 23 -19 18 -36 -14 -50 -56 -23 -85 6 -98 96 -5 41 0 74 12 74 3 0
5 -6 4 -12z m169 3 c0 -4 3 -17 8 -31 l8 -25 12 30 c9 19 13 24 14 12 0 -31
-30 -77 -58 -88 -23 -9 -29 -7 -44 11 -10 12 -18 39 -18 59 0 35 0 36 13 11 7
-14 21 -25 32 -25 11 0 26 -6 33 -15 11 -13 12 -12 3 6 -6 12 -7 25 -3 29 4 5
1 5 -7 0 -9 -5 -12 -4 -7 3 3 6 1 14 -5 18 -7 4 -9 3 -5 -4 3 -6 2 -13 -4 -17
-5 -3 -10 2 -11 12 0 16 -1 16 -9 -2 -6 -15 -9 -16 -9 -4 -1 9 1 18 4 20 6 7
54 6 53 0z m-143 -40 c3 -5 2 -12 -3 -15 -5 -3 -9 1 -9 9 0 17 3 19 12 6z
m-110 -56 c0 -22 -17 -27 -32 -10 -4 4 -2 5 5 1 7 -4 12 -1 12 9 0 10 -5 13
-12 9 -6 -4 -8 -3 -5 3 11 18 32 10 32 -12z m64 -34 c22 -60 16 -81 -23 -81
-26 0 -68 28 -64 42 2 5 6 8 9 6 10 -5 39 24 34 32 -3 5 -1 11 5 15 5 3 10 16
10 27 0 29 5 22 29 -41z m348 35 c-4 -11 0 -13 15 -11 11 3 23 7 27 11 3 4 -2
4 -11 1 -10 -4 -18 -2 -18 3 0 15 34 12 56 -5 10 -8 14 -15 7 -15 -6 0 -10 -8
-8 -17 2 -10 6 -39 9 -66 5 -46 5 -47 -18 -41 -32 8 -38 -6 -20 -41 17 -33 5
-48 -33 -42 -21 4 -22 1 -16 -38 4 -35 2 -46 -17 -65 -18 -18 -29 -21 -59 -15
-20 4 -77 9 -127 11 -90 4 -144 16 -144 31 0 5 7 17 15 27 14 19 46 24 168 26
10 0 23 13 31 30 7 17 15 27 19 23 4 -3 7 1 7 11 0 9 3 15 8 13 6 -5 12 39 16
114 1 18 5 25 15 21 8 -3 12 -1 8 5 -3 5 0 10 8 10 8 0 12 -4 10 -8 -3 -4 4
-5 15 -2 10 3 22 14 25 24 4 10 9 19 12 19 3 0 3 -6 0 -14z m-397 -40 c0 -11
-19 -15 -25 -6 -3 5 1 10 9 10 9 0 16 -2 16 -4z m-130 -59 c0 -7 9 -18 21 -25
12 -8 18 -9 14 -3 -3 6 -1 11 4 11 6 0 11 -8 12 -17 0 -15 2 -15 8 2 5 11 4
22 0 23 -5 2 -9 9 -9 15 0 17 27 -14 35 -40 14 -48 -91 -103 -109 -57 -8 21
-8 99 0 107 9 9 24 -1 24 -16z m-1411 -199 c-1 -39 -2 -41 -8 -13 -4 17 -5 36
-3 43 8 23 12 12 11 -30z m2108 -25 c-3 -10 -5 -4 -5 12 0 17 2 24 5 18 2 -7
2 -21 0 -30z m-1705 -20 c6 -16 11 -44 10 -63 0 -19 5 -38 11 -42 8 -5 7 -8
-3 -8 -17 0 -51 20 -35 20 6 0 3 4 -4 9 -21 13 -25 111 -5 111 8 0 19 -12 26
-27z m1702 -68 c-1 -47 -14 -58 -14 -13 0 27 6 48 14 48 1 0 1 -16 0 -35z
m-2019 -5 c3 -5 2 -10 -4 -10 -5 0 -13 5 -16 10 -3 6 -2 10 4 10 5 0 13 -4 16
-10z m2855 -75 c-7 -9 -15 -13 -17 -11 -7 7 7 26 19 26 6 0 6 -6 -2 -15z
m-2850 -34 c13 -11 12 -12 -6 -3 -12 7 -24 19 -28 29 -5 16 -4 16 7 3 7 -8 19
-21 27 -29z m95 9 c10 -11 16 -23 12 -26 -3 -3 -10 4 -17 15 -6 12 -15 19 -21
16 -5 -4 -9 -1 -9 4 0 17 15 13 35 -9z m2741 -58 c3 -16 10 -22 19 -18 13 5
20 -10 16 -36 0 -4 5 -5 13 -2 8 3 17 0 22 -7 4 -8 3 -10 -4 -5 -7 4 -12 2
-12 -4 0 -6 -6 -8 -12 -4 -7 4 -10 4 -6 0 4 -5 3 -19 -3 -33 -5 -13 -5 -22 -1
-19 4 2 14 0 22 -5 13 -8 11 -12 -7 -28 -13 -11 -23 -24 -23 -29 0 -15 -28
-23 -33 -9 -2 7 3 21 12 32 16 20 16 20 -6 1 -13 -10 -21 -22 -18 -26 2 -4 -7
-5 -21 -2 -16 3 -29 -1 -35 -9 -4 -8 -6 12 -2 46 3 33 10 66 16 73 5 7 11 20
12 30 1 9 5 26 9 37 4 11 13 34 19 50 10 25 12 26 15 10 1 -11 5 -31 8 -43z
m38 17 c-10 -11 -21 -19 -26 -19 -14 0 -4 25 10 26 23 3 24 4 11 22 -13 15
-12 16 4 3 16 -13 16 -15 1 -32z m-2914 11 c0 -5 -2 -10 -4 -10 -3 0 -8 5 -11
10 -3 6 -1 10 4 10 6 0 11 -4 11 -10z m2620 -80 c0 -5 -7 -10 -16 -10 -8 0
-12 5 -9 10 3 6 10 10 16 10 5 0 9 -4 9 -10z m170 -196 c0 -8 -5 -12 -10 -9
-6 4 -8 11 -5 16 9 14 15 11 15 -7z m-1376 -12 c2 -4 0 -14 -6 -22 -8 -12 -9
-11 -4 4 5 14 2 17 -9 12 -9 -3 -13 -2 -10 4 7 12 22 13 29 2z m-134 -116 c0
-2 -8 -10 -17 -17 -16 -13 -17 -12 -4 4 13 16 21 21 21 13z m480 -256 c0 -10
-11 -25 -24 -33 -22 -15 -24 -14 -34 8 -9 20 -7 26 11 38 26 17 47 12 47 -13z
m63 -48 c10 50 23 55 43 17 12 -23 15 -46 11 -80 -4 -32 -1 -58 8 -76 8 -15
21 -54 29 -86 13 -51 13 -65 0 -129 -8 -39 -24 -83 -34 -98 -28 -39 -84 -63
-129 -56 -89 16 -101 19 -106 26 -2 4 26 10 63 12 163 12 210 95 122 216 -46
64 -71 77 -126 63 -44 -11 -118 -44 -161 -71 -18 -12 -25 -11 -48 4 -15 10
-30 27 -33 38 -3 14 -7 16 -13 7 -6 -10 -11 -10 -22 -1 -7 7 -17 9 -20 5 -4
-3 -7 -1 -7 6 0 7 6 19 14 26 12 12 16 12 26 0 16 -19 26 -19 33 -1 4 10 1 13
-7 10 -8 -3 -17 -1 -20 4 -7 12 22 25 35 16 5 -3 9 0 9 5 0 6 19 11 42 11 37
0 47 5 80 41 32 35 42 40 65 35 18 -4 23 -3 15 2 -10 7 -6 15 18 36 36 30 46
32 54 10 9 -23 -12 -54 -36 -54 -19 0 -19 -2 6 -21 17 -13 25 -27 21 -36 -3
-11 -1 -13 10 -10 8 4 17 2 20 -3 4 -6 11 -10 17 -10 6 0 1 11 -12 25 l-24 25
22 20 c24 23 28 31 11 28 -7 -2 -15 10 -20 27 -6 22 -4 34 9 48 16 19 17 18
22 -24 l5 -44 8 37z m-132 7 c20 -10 20 -11 3 -30 -17 -19 -49 -26 -57 -11 -7
11 11 52 23 52 6 0 20 -5 31 -11z m94 -70 c-10 -15 -25 -10 -19 6 4 8 10 12
15 9 5 -3 7 -10 4 -15z m400 -13 c75 -35 148 -98 179 -156 25 -46 27 -58 22
-113 -3 -34 -7 -122 -8 -194 l-1 -133 51 -53 c56 -60 112 -142 146 -218 13
-27 25 -47 27 -45 2 2 5 -30 7 -73 l3 -77 -57 -39 c-100 -69 -202 -214 -245
-350 -12 -38 -27 -73 -33 -77 -25 -17 -166 -8 -262 17 -147 38 -214 73 -300
157 -81 78 -126 141 -154 216 -17 44 -17 49 -3 48 26 -2 69 95 71 158 0 33 9
69 21 93 25 49 116 139 125 124 4 -6 12 -11 18 -11 7 0 7 4 0 13 -9 10 0 25
38 62 65 64 94 132 87 201 -7 64 10 94 53 94 26 0 33 7 61 62 47 93 69 164 76
246 3 42 10 72 17 72 6 0 34 -11 61 -24z m-696 -30 c7 -8 8 -16 4 -19 -15 -8
-114 -29 -119 -25 -2 3 5 15 16 27 18 22 20 22 36 7 20 -20 32 -13 14 9 -11
13 -9 15 13 15 13 0 30 -6 36 -14z m599 -36 c2 -24 -4 -66 -13 -94 -22 -68
-76 -186 -85 -186 -4 0 -21 6 -37 13 l-30 12 32 85 c17 47 39 106 49 131 18
51 52 92 69 86 7 -2 13 -23 15 -47z m-1901 18 c-3 -8 -6 -5 -6 6 -1 11 2 17 5
13 3 -3 4 -12 1 -19z m442 -98 c10 -8 5 -164 -6 -190 -9 -20 -10 -14 -6 35 3
38 -1 82 -11 120 -9 32 -16 68 -16 80 1 16 4 15 17 -10 9 -16 19 -32 22 -35z
m713 38 c9 -7 37 -45 62 -85 32 -48 62 -82 94 -102 75 -48 92 -61 92 -71 0 -6
-6 -10 -13 -10 -22 0 -129 73 -172 116 -40 41 -105 136 -105 154 0 14 23 13
42 -2z m426 -50 c4 -32 -4 -35 -29 -12 -16 15 -22 15 -70 -1 -58 -20 -89 -46
-89 -75 0 -11 -4 -20 -10 -20 -11 0 -30 33 -30 52 0 29 135 89 190 85 30 -2
35 -6 38 -29z m-376 -125 c68 -84 122 -124 198 -149 85 -28 113 -68 67 -99
-20 -13 -236 -75 -263 -75 -6 0 -24 28 -40 62 -16 34 -47 81 -69 103 -38 38
-40 43 -39 100 1 55 17 106 47 143 13 16 23 7 99 -85z m251 47 c14 -11 33 -43
42 -70 15 -46 19 -50 49 -50 39 0 76 25 76 51 0 17 3 18 21 9 50 -28 -12 -76
-111 -87 -63 -6 -63 -6 -58 18 3 13 9 33 14 44 7 17 6 18 -8 7 -14 -11 -20 -7
-45 30 -42 62 -31 88 20 48z m175 -29 c10 -6 9 -10 -7 -14 -14 -3 -19 -10 -15
-20 7 -18 -32 -47 -63 -47 -31 0 -30 34 2 65 24 25 59 32 83 16z m817 -603
c-1 -13 -3 -43 -4 -67 0 -24 -4 -41 -8 -38 -8 9 -7 102 2 116 10 17 13 13 10
-11z m64 -245 c-1 -27 -4 -38 -6 -25 -3 15 -10 22 -19 18 -8 -3 -14 -3 -14 0
0 6 33 53 38 54 1 0 1 -21 1 -47z m-49 3 c0 -3 -4 -8 -10 -11 -5 -3 -10 -1
-10 4 0 6 5 11 10 11 6 0 10 -2 10 -4z m-57 -56 c-3 -11 -7 -20 -9 -20 -2 0
-4 9 -4 20 0 11 4 20 9 20 5 0 7 -9 4 -20z m204 -3 c10 4 7 -3 -8 -21 -15 -18
-25 -23 -28 -15 -2 7 1 15 7 17 6 2 10 9 8 15 -1 7 -1 9 1 5 2 -4 11 -4 20 -1z
m-70 -59 c-3 -7 -5 -2 -5 12 0 14 2 19 5 13 2 -7 2 -19 0 -25z m-157 -33 c-17
-59 -24 -52 -9 9 6 26 14 44 17 42 2 -3 -1 -26 -8 -51z m180 -50 c14 -19 14
-19 -3 -6 -15 12 -17 12 -11 -3 3 -9 10 -16 14 -16 4 0 7 -17 7 -39 -1 -35 -3
-38 -19 -27 -13 8 -18 23 -18 57 0 25 3 49 7 52 3 4 7 6 7 5 1 -2 8 -12 16
-23z m-184 -75 c8 -7 14 -22 14 -33 0 -18 -2 -18 -20 6 -13 16 -19 38 -18 64
1 35 1 36 5 6 2 -17 11 -37 19 -43z m182 -32 c15 -15 -4 -52 -21 -41 -7 4 -15
8 -19 8 -15 0 -20 15 -5 15 10 0 17 7 17 15 0 18 12 19 28 3z m-78 -62 c0 -2
-8 -10 -17 -17 -16 -13 -17 -12 -4 4 13 16 21 21 21 13z m-963 -98 c-3 -8 -6
-5 -6 6 -1 11 2 17 5 13 3 -3 4 -12 1 -19z m810 -34 c-3 -3 -12 -4 -19 -1 -8
3 -5 6 6 6 11 1 17 -2 13 -5z m53 -29 c0 -8 -2 -15 -4 -15 -2 0 -6 7 -10 15
-3 8 -1 15 4 15 6 0 10 -7 10 -15z m40 5 c0 -5 -5 -10 -11 -10 -5 0 -7 5 -4
10 3 6 8 10 11 10 2 0 4 -4 4 -10z m-880 -69 c5 -18 5 -33 -1 -36 -5 -4 -9 2
-9 12 0 10 -3 29 -7 43 -9 36 6 19 17 -19z m14 -244 c3 -16 1 -25 -5 -22 -5 4
-9 18 -9 32 0 32 7 27 14 -10z m-144 -1 c0 -3 -4 -8 -10 -11 -5 -3 -10 -1 -10
4 0 6 5 11 10 11 6 0 10 -2 10 -4z m514 -72 c9 -8 16 -32 16 -52 -1 -42 -51
-174 -68 -180 -21 -7 -13 89 12 151 13 31 20 57 16 57 -15 0 -50 -109 -50
-153 0 -29 -12 -64 -39 -117 -22 -41 -58 -122 -81 -180 -22 -58 -47 -111 -55
-119 -42 -42 -65 176 -31 284 19 61 14 70 -8 14 -26 -65 -32 -184 -12 -253 17
-59 16 -74 -3 -61 -52 31 -62 209 -20 330 24 69 25 70 57 67 24 -2 32 1 32 12
0 9 9 16 20 16 40 0 94 38 124 88 20 34 71 111 73 112 1 0 9 -7 17 -16z m-527
-26 c-3 -8 -6 -5 -6 6 -1 11 2 17 5 13 3 -3 4 -12 1 -19z m1157 -12 c64 -19
122 -59 141 -97 24 -46 36 -137 24 -181 -10 -40 -33 -58 -73 -58 -37 0 -47 28
-41 112 3 50 2 63 -4 43 -5 -16 -9 -49 -10 -72 -1 -36 -4 -43 -21 -43 -33 0
-69 67 -84 161 -8 46 -18 99 -22 117 -6 29 -4 32 18 32 14 0 46 -6 72 -14z
m-136 -64 c3 -64 -2 -71 -37 -52 -17 8 -57 88 -49 96 2 2 15 8 28 13 47 19 55
11 58 -57z m-1013 17 c-10 -15 -25 -10 -19 6 4 8 10 12 15 9 5 -3 7 -10 4 -15z"/>
<path d="M2000 3969 c0 -26 68 -79 102 -79 7 0 -3 10 -22 21 -19 12 -45 33
-57 48 -16 18 -22 22 -23 10z"/>
<path d="M1785 3830 c-3 -5 -2 -17 3 -26 8 -14 10 -14 15 5 5 22 -7 38 -18 21z"/>
<path d="M1816 3813 c-6 -14 -5 -15 5 -6 7 7 10 15 7 18 -3 3 -9 -2 -12 -12z"/>
<path d="M1541 3994 c0 -11 3 -14 6 -6 3 7 2 16 -1 19 -3 4 -6 -2 -5 -13z"/>
<path d="M1839 2733 c-13 -15 -12 -15 9 -4 23 12 28 21 13 21 -5 0 -15 -7 -22
-17z"/>
<path d="M1891 2747 c2 -1 13 -9 24 -17 19 -14 19 -14 6 3 -7 9 -18 17 -24 17
-6 0 -8 -1 -6 -3z"/>
<path d="M1716 2668 c-9 -12 -16 -32 -15 -43 1 -14 4 -10 10 11 5 17 19 36 31
42 18 8 19 11 6 11 -9 1 -24 -9 -32 -21z"/>
<path d="M2423 2100 c-46 -44 -106 -65 -223 -80 l-75 -9 85 4 c47 2 106 11
132 20 45 16 138 87 128 98 -3 3 -24 -12 -47 -33z"/>
</g>
</svg>
